<svg width="104" height="104" viewBox="0 0 104 104" fill="none" xmlns="http://www.w3.org/2000/svg">
<g id="bank-note-01">
<path id="Icon" d="M26.0003 47.6667V65M78.0003 39V56.3334M73.667 17.3334C84.2781 17.3334 90.0172 18.9573 92.8728 20.217C93.2531 20.3847 93.4433 20.4686 93.9921 20.9923C94.321 21.3063 94.9215 22.2274 95.076 22.6551C95.3337 23.3686 95.3337 23.7586 95.3337 24.5386V71.115C95.3337 75.053 95.3337 77.022 94.7431 78.0341C94.1424 79.0636 93.5631 79.5422 92.4387 79.9379C91.3334 80.3268 89.1022 79.8981 84.6397 79.0407C81.5163 78.4406 77.8119 78 73.667 78C60.667 78 47.667 86.6667 30.3337 86.6667C19.7226 86.6667 13.9834 85.0427 11.1278 83.7831C10.7475 83.6154 10.5574 83.5315 10.0086 83.0078C9.67963 82.6938 9.07917 81.7727 8.9247 81.345C8.66699 80.6315 8.66699 80.2415 8.66699 79.4615L8.66699 32.8851C8.66699 28.9471 8.66699 26.9781 9.25753 25.966C9.85823 24.9365 10.4376 24.4579 11.5619 24.0622C12.6672 23.6733 14.8985 24.102 19.3609 24.9594C22.4843 25.5595 26.1887 26 30.3337 26C43.3337 26 56.3337 17.3334 73.667 17.3334ZM62.8337 52C62.8337 57.9831 57.9834 62.8334 52.0003 62.8334C46.0172 62.8334 41.167 57.9831 41.167 52C41.167 46.017 46.0172 41.1667 52.0003 41.1667C57.9834 41.1667 62.8337 46.017 62.8337 52Z" stroke="black" stroke-width="4" stroke-linecap="round" stroke-linejoin="round"/>
</g>
</svg>
